<?xml version="1.0" encoding="utf-8"?>
<!-- Generator: Adobe Illustrator 16.0.0, SVG Export Plug-In . SVG Version: 6.00 Build 0)  -->
<!DOCTYPE svg PUBLIC "-//W3C//DTD SVG 1.1//EN" "http://www.w3.org/Graphics/SVG/1.1/DTD/svg11.dtd">
<svg version="1.1" id="Layer_1" xmlns="http://www.w3.org/2000/svg" xmlns:xlink="http://www.w3.org/1999/xlink" x="0px" y="0px"
	 width="10.76px" height="9px" viewBox="0 0 10.76 9" enable-background="new 0 0 10.76 9" xml:space="preserve">
<path fill="#FFC10D" d="M9.866,0C9.224,0,0.894,0,0.894,0C0.253,0,0.253,0.641,0.253,0.641v5.768c0,0,0,0.641,0.641,0.641h3.205
	c0,0-1.923,0.641-1.923,1.281c0,0.643,0.641,0.643,0.641,0.643h5.126c0,0,0.641,0,0.641-0.643c0-0.641-1.922-1.281-1.922-1.281
	h3.205c0.641,0,0.641-0.641,0.641-0.641V0.641C10.507,0.641,10.507,0,9.866,0z M9.866,6.408H0.894V0.641h8.973V6.408z M9.224,1.282
	H7.302C3.457,1.922,1.535,5.127,1.535,5.127v0.641h7.689V1.282z"/>
</svg>
