<?xml version="1.0" encoding="utf-8"?>
<!-- Generator: Adobe Illustrator 16.0.0, SVG Export Plug-In . SVG Version: 6.00 Build 0)  -->
<!DOCTYPE svg PUBLIC "-//W3C//DTD SVG 1.1//EN" "http://www.w3.org/Graphics/SVG/1.1/DTD/svg11.dtd">
<svg version="1.1" id="Layer_1" xmlns="http://www.w3.org/2000/svg" xmlns:xlink="http://www.w3.org/1999/xlink" x="0px" y="0px"
	 width="10.76px" height="9px" viewBox="0 0 10.76 9" enable-background="new 0 0 10.76 9" xml:space="preserve">
<path fill="none" d="M-19-19h48v48h-48V-19z"/>
<path fill="none" d="M1.333,1.333h7.333v7.333H1.333V1.333z"/>
<path fill="#FFC10D" d="M9.511,0.132H1.649c-0.482,0-0.874,0.392-0.874,0.874v5.242c0,0.481,0.391,0.872,0.874,0.872h3.057v0.874
	H3.833v0.874h3.493V7.994H6.454V7.12h3.057c0.483,0,0.874-0.391,0.874-0.872V1.006C10.385,0.523,9.994,0.132,9.511,0.132z
	 M9.511,6.248H1.649V1.006h7.862V6.248z"/>
</svg>
